<?xml version="1.0" encoding="UTF-8"?>
<svg id="_レイヤー_2" data-name="レイヤー 2" xmlns="http://www.w3.org/2000/svg" viewBox="0 0 200 5">
  <defs>
    <style>
      .cls-1 {
        fill: #aab849;
        fill-rule: evenodd;
        stroke-width: 0px;
      }
    </style>
  </defs>
  <g id="_プロフィール" data-name="プロフィール">
    <path class="cls-1" d="m86.3.12C55.36.5,24.53,1.37,11.61,2.23,3.55,2.77,0,3.45,0,4.45c0,.6,1.62.68,6.48.38,10.65-.66,18.36-.96,37.45-1.5,29.18-.8,37.21-.9,70.8-.9s40.34.1,61.15.84c11.75.42,22.43.46,23.53.1.65-.22.72-.32.41-.56-1.27-.86-7.58-1.26-33.59-2.08C145.8.08,111.11-.18,86.3.12Z"/>
  </g>
</svg>